<svg width="40" height="40" viewBox="0 0 40 40" fill="none" xmlns="http://www.w3.org/2000/svg">
<path d="M9.2333 18.5303C1.4333 19.0803 1.4333 30.4303 9.2333 30.9803H12.4334" stroke="#292D32" stroke-width="1.5" stroke-miterlimit="10" stroke-linecap="round" stroke-linejoin="round"/>
<path d="M9.31712 18.5328C3.96712 3.64942 26.5337 -2.30057 29.117 13.3328C36.3337 14.2494 39.2504 23.8661 33.7838 28.6494C32.1171 30.1661 29.9671 30.9994 27.7171 30.9828H27.567" stroke="#292D32" stroke-width="1.5" stroke-miterlimit="10" stroke-linecap="round" stroke-linejoin="round"/>
<path d="M28.3332 27.5521C28.3332 28.7854 28.0665 29.9521 27.5665 30.9854C27.4331 31.2854 27.2832 31.5688 27.1165 31.8354C25.6832 34.2521 23.0332 35.8854 19.9998 35.8854C16.9665 35.8854 14.3165 34.2521 12.8831 31.8354C12.7165 31.5688 12.5665 31.2854 12.4332 30.9854C11.9332 29.9521 11.6665 28.7854 11.6665 27.5521C11.6665 22.9521 15.3998 19.2188 19.9998 19.2188C24.5998 19.2188 28.3332 22.9521 28.3332 27.5521Z" stroke="#292D32" stroke-width="1.5" stroke-miterlimit="10" stroke-linecap="round" stroke-linejoin="round"/>
<path d="M20.0002 31.6667V25L18.3335 27.2222" stroke="#292D32" stroke-width="1.5" stroke-linecap="round" stroke-linejoin="round"/>
<path d="M20 25L21.6667 27.2222" stroke="#292D32" stroke-width="1.5" stroke-linecap="round" stroke-linejoin="round"/>
</svg>
