<svg width="22" height="20" viewBox="0 0 22 20" fill="none" xmlns="http://www.w3.org/2000/svg">
<path fill-rule="evenodd" clip-rule="evenodd" d="M8.61617 1.6419C9.6736 -0.19704 12.3268 -0.19704 13.3841 1.6419L21.4271 15.6296C22.4813 17.463 21.1579 19.7504 19.0431 19.7504H2.95721C0.84242 19.7504 -0.480945 17.463 0.57322 15.6296L8.61617 1.6419ZM11 6.25C11.4142 6.25 11.75 6.58579 11.75 7V11C11.75 11.4142 11.4142 11.75 11 11.75C10.5858 11.75 10.25 11.4142 10.25 11V7C10.25 6.58579 10.5858 6.25 11 6.25ZM11.5675 15.5008C11.8446 15.1929 11.8196 14.7187 11.5117 14.4416C11.2038 14.1645 10.7296 14.1894 10.4525 14.4973L10.4425 14.5084C10.1654 14.8163 10.1904 15.2905 10.4983 15.5676C10.8062 15.8447 11.2804 15.8197 11.5575 15.5119L11.5675 15.5008Z" fill="#D80027"/>
</svg>
